<?xml version="1.0" encoding="UTF-8"?>
<svg xmlns="http://www.w3.org/2000/svg"
     viewBox="0 0 512 512"
     width="512" height="512">
  <title>PenchantManufacture-CJK た</title>
  <!-- frame x=2.048,509.952 y=0.000,507.392 -->
  <g transform="matrix(33.843200,0,0,33.843200,-94.185,-1693.616)">
    <path d="M13.347 58.039L14.347 59.039L15.347 59.039L15.347 56.039L9.347 56.039L9.347 57.039L10.347 58.039L13.347 58.039" fill="#000000"/>
    <path d="M10.347 61.039L10.347 59.539L9.347 59.539L8.347 60.539L8.347 62.039L10.347 64.039L15.847 64.039L15.847 62.039L11.347 62.039L10.347 61.039" fill="#000000"/>
    <path d="M7.847 53.039L7.847 52.039L5.847 52.039L5.847 53.039L4.847 53.039L4.847 55.039L5.847 55.039L5.847 64.039L8.347 64.039L8.347 63.039L7.847 62.539L7.847 55.039L14.847 55.039L15.847 54.039L15.847 53.039L7.847 53.039" fill="#000000"/>
  </g>
</svg>
